# xmcd
#
# Track frame offsets:
# 182
# 16552
# 35375
# 63792
# 79517
# 96185
# 111020
# 122050
# 138277
# 153015
# 170040
# 188027
# 211547
#
# Disc length: 3112 seconds
#
#
# Revision: 11
# Processed by: cddbd v1.5.2PL0 Copyright (c) Steve Scherf et al.
# Submitted via: FreeRIP 2.90 
#
DISCID=910c260d
DTITLE=Bryan Adams - 18 Til I Die
DYEAR=1996
DGENRE=Rock and Roll
TTITLE0=The Only Thing That Looks Good On Me Is You
TTITLE1=Do To You
TTITLE2=Let´s Make A Night To Remember
TTITLE3=18 Til I Die
TTITLE4=Star
TTITLE5=(I Wanna Be) Your Underwear
TTITLE6=We're Gonna Win
TTITLE7=I Think About You
TTITLE8=I'll Always Be Right There
TTITLE9=It Ain't A Party - If You Can't Come 'Round
TTITLE10=Black Pearl
TTITLE11=You're Still Beautiful To Me
TTITLE12=Have You Ever Really Loved A Woman?
EXTD=
EXTT0=
EXTT1=
EXTT2=
EXTT3=
EXTT4=
EXTT5=
EXTT6=
EXTT7=
EXTT8=
EXTT9=
EXTT10=
EXTT11=
EXTT12=
PLAYORDER=
